<svg width="40" height="40" viewBox="0 0 40 40" fill="none" xmlns="http://www.w3.org/2000/svg">
<path d="M8.5907 20.7812C8.15948 20.7812 7.80945 21.1313 7.80945 21.5625C7.80945 21.9937 8.15948 22.3438 8.5907 22.3438C9.02191 22.3438 9.37195 21.9937 9.37195 21.5625C9.37195 21.1313 9.02191 20.7812 8.5907 20.7812Z" fill="#B29150"/>
<path d="M19.997 9.375C20.4285 9.375 20.7782 9.02527 20.7782 8.59375C20.7782 8.16223 20.4285 7.8125 19.997 7.8125C14.1193 7.8125 8.74638 12.626 7.9282 18.3282C7.86686 18.7552 8.16349 19.151 8.59074 19.2123C8.62827 19.2178 8.6655 19.2203 8.70273 19.2203C9.08482 19.2203 9.41898 18.9395 9.47483 18.5498C10.1883 13.5767 15.0068 9.375 19.997 9.375Z" fill="#B29150"/>
<path fill-rule="evenodd" clip-rule="evenodd" d="M22.6767 17.5085L27.1372 18.1564C27.4317 18.1992 27.6761 18.4054 27.7683 18.688C27.8601 18.9709 27.7835 19.2813 27.5705 19.4891L24.3427 22.6352L25.1044 27.0779C25.1548 27.3712 25.0342 27.6675 24.7937 27.8421C24.5505 28.0188 24.2313 28.0383 23.9707 27.9016L19.982 25.8038L15.9928 27.9016C15.7294 28.0398 15.4105 28.0169 15.17 27.8421C14.9292 27.6675 14.8087 27.3712 14.859 27.0782L15.6208 22.6352L12.3932 19.4891C12.1802 19.2816 12.1036 18.9709 12.1955 18.6883C12.2873 18.4054 12.5318 18.1992 12.826 18.1564L17.2867 17.5085L19.2817 13.4668C19.4132 13.2001 19.6848 13.0313 19.982 13.0313C20.2796 13.0313 20.5512 13.2001 20.6827 13.4668L22.6767 17.5085ZM22.7332 22.4945C22.6895 22.2412 22.7738 21.9824 22.9578 21.803L25.3461 19.4754L22.0456 18.996C21.7911 18.959 21.5711 18.7991 21.4572 18.5684L19.982 15.578L18.5062 18.5684C18.3924 18.7991 18.1723 18.959 17.9178 18.996L14.6173 19.4754L17.0056 21.803C17.1897 21.9827 17.2736 22.2412 17.2303 22.4945L16.6666 25.7818L19.6186 24.2297C19.8462 24.1101 20.1181 24.1101 20.3458 24.2297L23.2968 25.7818L22.7332 22.4945Z" fill="#B29150"/>
<path fill-rule="evenodd" clip-rule="evenodd" d="M4.68445 20C4.68445 11.8069 11.8307 4.6875 19.9969 4.6875C28.19 4.6875 35.3094 11.8338 35.3094 20C35.3094 28.1931 28.1631 35.3125 19.9969 35.3125C11.8039 35.3125 4.68445 28.1662 4.68445 20ZM6.24695 20C6.24695 27.3248 12.6721 33.75 19.9969 33.75C27.3218 33.75 33.7469 27.3248 33.7469 20C33.7469 12.6752 27.3218 6.25 19.9969 6.25C12.6721 6.25 6.24695 12.6752 6.24695 20Z" fill="#B29150"/>
<path fill-rule="evenodd" clip-rule="evenodd" d="M38.4609 14.5552L38.4619 14.5511C38.6469 13.764 38.8559 12.8723 38.5178 12.0554C38.1726 11.2238 37.3853 10.7373 36.6904 10.3082L36.6892 10.3075C36.2406 10.0303 35.7768 9.74368 35.5737 9.44C35.3659 9.12933 35.2765 8.58643 35.1904 8.06152C35.0589 7.26013 34.9097 6.35162 34.2789 5.72083C33.6484 5.09031 32.7401 4.94123 31.9389 4.80975L31.9379 4.80957C31.413 4.72351 30.8704 4.6344 30.5606 4.42749C30.2565 4.22394 29.9703 3.76054 29.6933 3.31195L29.6912 3.30843C29.262 2.61391 28.7756 1.82684 27.9443 1.48224C27.1281 1.14385 26.2365 1.35308 25.4499 1.53769C24.9274 1.66038 24.3869 1.78711 24.0125 1.71326C23.6398 1.6394 23.1036 1.32019 22.5851 1.01135C21.7505 0.514224 20.8871 0 20 0C19.1126 0 18.2492 0.513836 17.4143 1.01079L17.4133 1.01135C16.8948 1.32019 16.3586 1.6394 15.986 1.71326C15.6119 1.78711 15.072 1.66046 14.5499 1.53778C13.763 1.35319 12.8708 1.1439 12.0544 1.48224C11.2232 1.82725 10.7368 2.61439 10.3075 3.30907L10.307 3.30994C10.0299 3.75916 9.74304 4.22363 9.43909 4.42719C9.12933 4.6344 8.58673 4.72351 8.06183 4.80957C7.26013 4.9411 6.35162 5.09033 5.72021 5.72113C5.09014 6.35121 4.94115 7.25859 4.80964 8.05958C4.72358 8.58478 4.6344 9.12842 4.42566 9.4397C4.22242 9.7438 3.75936 10.0299 3.31108 10.307L3.30704 10.3095C2.61295 10.7385 1.82676 11.2245 1.48224 12.056C1.1441 12.8723 1.35284 13.7637 1.53717 14.5502C1.65951 15.0722 1.78617 15.6126 1.71173 15.9879C1.6382 16.3607 1.31907 16.8968 1.01028 17.4155L1.00904 17.4176C0.512857 18.2517 0 19.1138 0 20C0 20.8875 0.513611 21.7508 1.01044 22.5858L1.01252 22.5893C1.3204 23.107 1.63835 23.6416 1.71173 24.0146C1.78589 24.3887 1.65955 24.9289 1.53717 25.451C1.35284 26.2378 1.1441 27.1292 1.48224 27.9453C1.82717 28.7766 2.61342 29.2627 3.30767 29.6919L3.30902 29.6927C3.75793 29.9698 4.22211 30.2567 4.42657 30.5621C4.6344 30.8719 4.72382 31.4151 4.80988 31.9403C4.9411 32.7411 5.09003 33.6487 5.72021 34.2798C6.35053 34.9098 7.25779 35.0588 8.0584 35.1903C8.58391 35.2764 9.12781 35.3656 9.43909 35.5743C9.74335 35.7779 10.0302 36.2421 10.3076 36.691C10.7367 37.3856 11.2231 38.1726 12.0551 38.5178C12.87 38.8556 13.7604 38.6473 14.5465 38.4634L14.549 38.4628C15.0711 38.3405 15.6116 38.2141 15.9863 38.2883C16.3586 38.3617 16.8943 38.6804 17.4126 38.9886L17.4142 38.9896C18.2492 39.4864 19.1125 40 20 40C20.8868 40 21.7498 39.4864 22.5841 38.9899C23.1029 38.6811 23.6395 38.3618 24.0128 38.2883C24.3875 38.2141 24.9277 38.3405 25.4504 38.4628C26.2369 38.6472 27.1283 38.8559 27.9446 38.5178C28.7762 38.1729 29.2627 37.3856 29.6918 36.691L29.693 36.6889C29.9701 36.2407 30.2562 35.7776 30.5609 35.574C30.8716 35.3656 31.4148 35.2765 31.94 35.1904C32.7406 35.0589 33.6489 34.9097 34.2789 34.2798C34.9097 33.6493 35.0589 32.7408 35.1904 31.9394C35.2765 31.4142 35.3659 30.8716 35.5734 30.5609C35.7768 30.2569 36.2406 29.9703 36.6892 29.6931L36.6904 29.6924C37.3853 29.2633 38.1726 28.7769 38.5178 27.9449C38.8559 27.1286 38.6469 26.2369 38.4619 25.4501L38.4615 25.4482C38.3392 24.9267 38.213 24.388 38.2867 24.0143C38.3601 23.6425 38.6779 23.1084 38.9855 22.5914L38.9883 22.5867C39.4858 21.7514 40 20.8878 40 20C40 19.1129 39.4858 18.2495 38.9886 17.4149C38.6798 16.8964 38.3606 16.3602 38.2867 15.9879C38.2128 15.6141 38.3389 15.0761 38.4609 14.5552ZM37.6459 21.7874L37.6449 21.7891C37.2689 22.4209 36.8801 23.0743 36.7538 23.7106C36.6144 24.4159 36.7803 25.1227 36.9407 25.8063C37.078 26.3907 37.2198 26.9958 37.0746 27.3468C36.9232 27.712 36.3895 28.0418 35.8727 28.3614L35.8694 28.3633C35.2784 28.7283 34.6673 29.1056 34.2749 29.6924C33.8791 30.2844 33.7619 30.997 33.6487 31.6861C33.5507 32.2827 33.4494 32.8998 33.1741 33.1747C32.8995 33.4494 32.2833 33.5507 31.6873 33.6484C30.997 33.7616 30.2835 33.8788 29.6915 34.2758C29.1059 34.6673 28.7289 35.277 28.3642 35.8669L28.3624 35.8698L28.3615 35.8712C28.042 36.3883 27.7118 36.9227 27.3462 37.0743C26.9954 37.2197 26.3927 37.0786 25.809 36.9421L25.8066 36.9415C25.1227 36.7813 24.4153 36.6156 23.7097 36.7554C23.0722 36.8811 22.4179 37.2705 21.7853 37.6471C21.1628 38.0175 20.4571 38.4375 20 38.4375C19.5432 38.4375 18.8395 38.0191 18.2173 37.6492L18.2132 37.6468C17.5806 37.2702 16.9263 36.8811 16.2897 36.7554C15.5875 36.6162 14.8865 36.7789 14.1925 36.9415L14.1912 36.9418C13.6075 37.0785 13.0039 37.2197 12.6532 37.0746C12.2881 36.9229 11.9582 36.3896 11.6387 35.873L11.6359 35.8685C11.2712 35.2781 10.8941 34.6677 10.3085 34.2761C9.71588 33.8788 9.00238 33.7616 8.31207 33.6484C7.71648 33.5507 7.09986 33.4497 6.82556 33.175C6.55091 32.9004 6.44981 32.285 6.35195 31.6893L6.35135 31.6856C6.23821 30.9962 6.1212 30.283 5.72449 29.6921C5.33203 29.1058 4.72137 28.7283 4.13055 28.3633C3.61267 28.0435 3.07739 27.7127 2.92572 27.3471C2.78026 26.9961 2.92154 26.3925 3.05817 25.8088L3.05847 25.8075C3.21862 25.1236 3.38434 24.4159 3.24463 23.7112C3.1189 23.0737 2.7298 22.4194 2.35321 21.7868L2.35244 21.7855C1.98215 21.163 1.5625 20.4574 1.5625 20C1.5625 19.5429 1.9823 18.8375 2.35274 18.215C2.72933 17.5824 3.1189 16.9278 3.24432 16.2909C3.3844 15.585 3.21869 14.8776 3.05847 14.1937L3.05791 14.1913C2.92136 13.6077 2.78035 13.0049 2.92542 12.6541C3.07725 12.2882 3.61166 11.958 4.12878 11.6385L4.13308 11.6358C4.72302 11.2711 5.33266 10.8941 5.72388 10.3091C6.12122 9.71649 6.2384 9.00299 6.35162 8.31268C6.44928 7.71667 6.55029 7.10052 6.82495 6.82617C7.10052 6.5509 7.7179 6.44958 8.31512 6.35162L8.31615 6.35145C9.00492 6.23829 9.71679 6.12132 10.3082 5.72571C10.8941 5.33322 11.2712 4.72282 11.6359 4.13238L11.6367 4.13116C11.9565 3.61298 12.2873 3.07739 12.6529 2.92572C13.0042 2.78015 13.6084 2.92175 14.1928 3.05908C14.8764 3.2196 15.5835 3.38562 16.2894 3.24615C16.9263 3.12012 17.5803 2.73071 18.2126 2.35413C18.8358 1.98303 19.5422 1.5625 20 1.5625C20.4569 1.5625 21.1624 1.98265 21.7847 2.35332C22.4171 2.7299 23.0719 3.11981 23.7094 3.24615C24.4152 3.3856 25.1221 3.21966 25.8059 3.05916L25.8081 3.05866C26.3919 2.92177 26.9953 2.7803 27.3459 2.92542C27.7118 3.07739 28.0426 3.61298 28.3624 4.13116C28.7274 4.72198 29.1049 5.33295 29.6918 5.72632C30.2835 6.12152 30.9958 6.2384 31.6849 6.35132C32.2818 6.44928 32.8989 6.5506 33.1741 6.82587C33.4491 7.10083 33.5507 7.7179 33.6487 8.31451L33.6489 8.31553C33.762 9.00461 33.879 9.71678 34.2749 10.3085C34.667 10.8945 35.2771 11.2715 35.8676 11.6364L35.8694 11.6376C36.3872 11.9573 36.9226 12.288 37.0743 12.6535C37.2197 13.0047 37.0782 13.6081 36.9413 14.1919L36.9409 14.1937C36.7804 14.8775 36.6144 15.5848 36.7538 16.2906C36.8802 16.9281 37.2696 17.5821 37.6462 18.2144C38.0168 18.8368 38.4375 19.5431 38.4375 20C38.4375 20.4578 38.017 21.1642 37.6459 21.7874Z" fill="#B29150"/>
</svg>
