<svg width="60" height="60" viewBox="0 0 60 60" fill="none" xmlns="http://www.w3.org/2000/svg">
<g clip-path="url(#clip0)">
<path d="M49.9158 2.94544C45.8681 3.46836 46.2186 8.81347 44.811 7.40299C43.6295 6.22147 45.8936 3.33269 43.9234 1.65369C40.4919 -1.27467 30.5875 -1.18987 31.6532 9.24593C32.0885 13.4915 30.548 11.6909 30.0759 10.9815C28.1595 8.10682 30.9974 3.63796 25.6268 3.10656C18.9193 2.44513 16.7485 10.7073 16.7655 11.4705C16.904 17.2311 15.3578 14.2038 14.1989 13.1269C12.9665 11.9821 11.6719 10.3851 8.14997 12.1658C-0.770778 16.6686 0.552069 27.3447 4.75522 32.4721C8.95555 37.5967 17.2658 42.7892 36.1983 36.9155C52.0556 31.9944 57.036 18.1384 57.036 18.1384C60.7643 9.0085 55.145 2.27271 49.9158 2.94544Z" fill="#FECE22"/>
<path d="M24.5425 44.423C24.4934 45.8997 24.4449 47.3578 24.4199 48.6572L24.4256 49.0812C24.3804 51.4103 21.9551 51.1814 21.5736 48.889C20.9969 45.4236 20.8132 40.3583 21.2428 36.7544C21.5227 34.4225 22.772 33.3257 24.8948 33.077C27.0911 32.817 29.3015 32.5937 31.5119 32.5032C33.7195 32.4127 36.0203 32.3195 38.2251 32.523C39.8334 32.6728 41.9109 33.306 42.4254 35.1659C42.8184 36.5855 42.7839 38.3543 42.7532 39.9295C42.7474 40.2234 42.7418 40.5111 42.7391 40.788C42.7317 41.5961 42.6916 41.8247 42.6466 42.0814C42.6058 42.3141 42.561 42.5698 42.5328 43.3008C42.4423 45.6243 39.0561 47.2128 39.1465 44.8837C39.169 44.2999 39.1944 43.7468 39.2192 43.2104C39.3034 41.3808 39.3788 39.7456 39.2935 37.7522C39.2826 37.5071 39.2885 37.3096 39.2933 37.1475C39.3098 36.5974 39.314 36.4552 38.6067 36.2456C38.0656 36.0854 37.7559 36.0891 37.2242 36.0954C37.0336 36.0977 36.8145 36.1003 36.5461 36.0958C34.7907 36.0647 33.0354 36.0478 31.2801 36.1297C29.3071 36.2202 28.3433 36.2965 26.376 36.4746C24.8863 36.6103 24.6913 38.3345 24.6856 38.9987C24.6683 40.6458 24.6049 42.5495 24.5425 44.423Z" fill="#282828"/>
<path d="M37.329 50.7178C40.4185 51.7495 42.92 48.9286 44.4294 46.5853C45.5375 44.8639 47.4935 47.504 46.3515 49.6748C44.2711 53.6377 41.1195 55.1838 37.5156 54.9916C35.3108 54.8758 33.4933 53.5246 32.2496 51.7948C30.695 55.4241 28.2076 58.3807 25.6862 59.4068C21.6442 61.0519 18.111 59.0676 16.8475 56.0064C15.9599 53.8525 17.4241 53.6914 19.4027 55.3308C21.1919 56.812 22.9897 56.5293 24.615 55.3506C26.8788 53.7106 28.2655 51.0476 29.9091 47.8914C30.053 47.6151 30.1988 47.3351 30.3473 47.0517C30.6837 45.9239 31.6193 45.6073 32.374 45.9239C32.487 45.9663 32.5945 46.0285 32.7019 46.1105L32.7225 46.1256C32.7393 46.1377 32.7566 46.1502 32.7725 46.1642C32.7747 46.1642 32.7768 46.1658 32.7789 46.1678L32.781 46.1698C32.911 46.2801 33.0298 46.4129 33.1287 46.5684C33.14 46.5853 33.1541 46.6051 33.1654 46.6249C33.1683 46.6306 33.1711 46.6334 33.1739 46.639L33.1907 46.6649C33.2104 46.6951 33.2298 46.7247 33.2474 46.7577C34.6748 49.2536 35.585 50.1355 37.329 50.7178Z" fill="#282828"/>
<path d="M34.1124 39.7902C32.9705 40.8982 31.6363 43.7192 33.7337 44.536C35.1187 45.0759 36.9362 43.2839 37.5863 42.091C38.1432 41.0678 36.532 40.8134 35.9186 41.6671C35.8923 41.7034 35.8605 41.7492 35.8241 41.8016C35.5207 42.2382 34.9003 43.1311 34.494 42.8005C34.2962 42.6535 34.3329 42.4613 34.4912 42.1674C34.723 41.7405 35.0169 41.4296 35.3901 41.0678C36.2239 40.2566 34.9463 38.9789 34.1124 39.7902Z" fill="#282828"/>
<path d="M27.5094 44.3891C26.2544 43.4619 26.5032 41.5512 27.1307 40.3272V40.2877C27.6621 39.2531 29.1517 40.0022 28.6231 41.0339C28.445 41.3816 28.1171 42.4585 28.5496 42.727C29.0612 43.0436 29.5559 42.7723 29.7764 41.7518C30.0223 40.6184 31.7974 41.113 31.4667 42.2295C31.0144 43.7587 29.1432 45.5989 27.5094 44.3891Z" fill="#282828"/>
</g>
<defs>
<clipPath id="clip0">
<rect width="60" height="60" fill="white"/>
</clipPath>
</defs>
</svg>
