<svg width="34" height="40" viewBox="0 0 34 40" fill="none" xmlns="http://www.w3.org/2000/svg">
<path fill-rule="evenodd" clip-rule="evenodd" d="M19.3438 23.5938C19.3438 24.8862 18.2924 25.9375 17 25.9375C15.7076 25.9375 14.6562 24.8862 14.6562 23.5938C14.6562 22.5754 15.3093 21.7068 16.2188 21.3843V15.7812C16.2188 15.3497 16.5685 15 17 15C17.4315 15 17.7812 15.3497 17.7812 15.7812V21.3843C18.6907 21.7068 19.3438 22.5754 19.3438 23.5938ZM17.7812 23.5938C17.7812 23.1628 17.4309 22.8125 17 22.8125C16.5691 22.8125 16.2188 23.1628 16.2188 23.5938C16.2188 24.0247 16.5691 24.375 17 24.375C17.4309 24.375 17.7812 24.0247 17.7812 23.5938Z" fill="#B29150"/>
<path d="M25.3224 15.3515C25.3102 15.3372 25.298 15.3229 25.2843 15.3094C25.2697 15.2945 25.2541 15.2811 25.2385 15.2676C23.8616 13.9053 22.1605 12.8973 20.3145 12.3523C19.9004 12.2302 19.4661 12.4664 19.3441 12.8802C19.222 13.2941 19.4582 13.7286 19.872 13.8507C21.2398 14.2547 22.5157 14.953 23.6034 15.8853L23.0764 16.4123C22.7715 16.7175 22.7715 17.2122 23.0764 17.5174C23.2289 17.67 23.4288 17.7463 23.629 17.7463C23.8289 17.7463 24.0288 17.67 24.1814 17.5174L24.7097 16.9891C26.1232 18.6328 26.9628 20.6561 27.1263 22.8125H26.375C25.9435 22.8125 25.5938 23.1625 25.5938 23.5937C25.5938 24.0252 25.9435 24.375 26.375 24.375H27.1263C26.9628 26.5317 26.1232 28.5547 24.7097 30.1983L24.1814 29.6701C23.8762 29.3652 23.3815 29.3652 23.0764 29.6701C22.7712 29.9753 22.7712 30.47 23.0764 30.7751L23.6046 31.3034C21.9609 32.717 19.9376 33.5565 17.7812 33.7204V32.9687C17.7812 32.5372 17.4315 32.1875 17 32.1875C16.5685 32.1875 16.2188 32.5372 16.2188 32.9687V33.7201C14.0624 33.5565 12.0391 32.717 10.3954 31.3034L10.9236 30.7751C11.2288 30.47 11.2288 29.9753 10.9236 29.6701C10.6185 29.3652 10.1238 29.3652 9.8186 29.6701L9.29034 30.1983C7.87677 28.5547 7.03723 26.5314 6.87366 24.375H7.625C8.05652 24.375 8.40625 24.0252 8.40625 23.5937C8.40625 23.1622 8.05652 22.8125 7.625 22.8125H6.87366C7.03723 20.6561 7.87677 18.6328 9.29034 16.9891L9.8186 17.5174C9.97119 17.67 10.1711 17.7463 10.371 17.7463C10.5712 17.7463 10.7711 17.67 10.9236 17.5174C11.2285 17.2122 11.2285 16.7175 10.9236 16.4123L10.3966 15.8853C11.4843 14.9527 12.7602 14.2547 14.128 13.8507C14.5418 13.7286 14.778 13.2941 14.6559 12.8802C14.5339 12.4664 14.0999 12.2305 13.6855 12.3523C11.8398 12.897 10.1393 13.9047 8.7627 15.2664C8.74652 15.2801 8.73065 15.2942 8.7157 15.3091C8.70401 15.3208 8.69348 15.333 8.68289 15.3452L8.67816 15.3506C6.4873 17.5619 5.28125 20.4867 5.28125 23.5937C5.28125 26.7004 6.4873 29.6249 8.67755 31.8359C8.68976 31.8503 8.70197 31.8646 8.7157 31.878C8.72759 31.8902 8.73996 31.9009 8.75238 31.9117L8.7572 31.9159C10.9685 34.1064 13.893 35.3125 17 35.3125C20.1067 35.3125 23.0312 34.1067 25.2422 31.9165C25.2565 31.904 25.2709 31.8918 25.2843 31.878C25.2944 31.8681 25.3037 31.8575 25.3129 31.847C25.3159 31.8436 25.3189 31.8402 25.3218 31.8368C27.5127 29.6255 28.7188 26.7007 28.7188 23.5937C28.7188 20.487 27.5127 17.5625 25.3224 15.3515Z" fill="#B29150"/>
<path d="M17.7812 12.6562C17.7812 13.0875 17.4312 13.4375 17 13.4375C16.5688 13.4375 16.2188 13.0875 16.2188 12.6562C16.2188 12.225 16.5688 11.875 17 11.875C17.4312 11.875 17.7812 12.225 17.7812 12.6562Z" fill="#B29150"/>
<path fill-rule="evenodd" clip-rule="evenodd" d="M31.4806 11.6461L29.7988 13.3282C32.13 16.232 33.4062 19.8489 33.4062 23.5938C33.4062 32.6401 26.0463 40 17 40C7.95367 40 0.59375 32.6401 0.59375 23.5938C0.59375 19.8489 1.87 16.232 4.20123 13.3282L2.51941 11.6461C1.60571 10.7324 1.60571 9.24561 2.51941 8.33191C3.43341 7.41821 4.92023 7.41821 5.83362 8.33191L7.62927 10.1276C9.50244 8.82294 11.6381 7.91962 13.875 7.48657V5.15625H12.3125C11.881 5.15625 11.5312 4.80652 11.5312 4.375V2.34375C11.5312 1.05133 12.5826 0 13.875 0H20.125C21.4174 0 22.4688 1.05133 22.4688 2.34375V4.375C22.4688 4.80652 22.119 5.15625 21.6875 5.15625H20.125V7.48657C22.3622 7.91992 24.4976 8.82294 26.3707 10.1276L28.1664 8.33191C29.0801 7.41821 30.5669 7.41821 31.4806 8.33191C32.3943 9.24591 32.3943 10.7327 31.4806 11.6461ZM30.3759 9.43665C30.0713 9.13239 29.576 9.13208 29.2711 9.43665L27.6195 11.0886C28.0162 11.4258 28.3977 11.7819 28.7615 12.1555L30.3759 10.5414C30.6801 10.2368 30.6801 9.74121 30.3759 9.43665ZM13.875 1.5625C13.4441 1.5625 13.0938 1.91284 13.0938 2.34375V3.59375H20.9062V2.34375C20.9062 1.91284 20.5559 1.5625 20.125 1.5625H13.875ZM18.5625 7.26135V5.15625H15.4375V7.26135C16.4733 7.16431 17.527 7.16431 18.5625 7.26135ZM4.72888 9.43665C4.42432 9.13208 3.92871 9.13239 3.62415 9.43665C3.31989 9.74121 3.31989 10.2368 3.62415 10.5414L5.23853 12.1555C5.60229 11.7819 5.98376 11.4258 6.38049 11.0886L4.72888 9.43665ZM2.15625 23.5938C2.15625 31.7786 8.81519 38.4375 17 38.4375C25.1848 38.4375 31.8438 31.7786 31.8438 23.5938C31.8438 19.9832 30.533 16.5045 28.1533 13.7979C27.4977 13.0524 26.7662 12.3712 25.9795 11.7725C24.0068 10.2716 21.6722 9.28375 19.2275 8.91541C18.4963 8.80585 17.7468 8.75 17 8.75C16.2532 8.75 15.5037 8.80585 14.7722 8.91541C12.3278 9.28375 9.99316 10.2716 8.02081 11.7725C7.23376 12.3712 6.50226 13.0524 5.84674 13.7979C3.46698 16.5045 2.15625 19.9832 2.15625 23.5938Z" fill="#B29150"/>
</svg>
