<svg width="40" height="36" viewBox="0 0 40 36" fill="none" xmlns="http://www.w3.org/2000/svg">
<path d="M7.8125 21.125C7.8125 21.5562 7.46246 21.9062 7.03125 21.9062C6.60004 21.9062 6.25 21.5562 6.25 21.125C6.25 20.6938 6.60004 20.3438 7.03125 20.3438C7.46246 20.3438 7.8125 20.6938 7.8125 21.125Z" fill="#B29150"/>
<path d="M10.1562 20.3438H20C20.4315 20.3438 20.7812 20.6935 20.7812 21.125C20.7812 21.5565 20.4315 21.9062 20 21.9062H10.1562C9.72473 21.9062 9.375 21.5565 9.375 21.125C9.375 20.6935 9.72473 20.3438 10.1562 20.3438Z" fill="#B29150"/>
<path d="M20 25.0312H7.03125C6.59973 25.0312 6.25 25.381 6.25 25.8125C6.25 26.244 6.59973 26.5938 7.03125 26.5938H20C20.4315 26.5938 20.7812 26.244 20.7812 25.8125C20.7812 25.381 20.4315 25.0312 20 25.0312Z" fill="#B29150"/>
<path d="M19.2188 8.625C19.2188 8.19379 19.5688 7.84375 20 7.84375C20.4312 7.84375 20.7812 8.19379 20.7812 8.625C20.7812 9.05621 20.4312 9.40625 20 9.40625C19.5688 9.40625 19.2188 9.05621 19.2188 8.625Z" fill="#B29150"/>
<path d="M23.125 7.84375H32.9688C33.4003 7.84375 33.75 8.19348 33.75 8.625C33.75 9.05652 33.4003 9.40625 32.9688 9.40625H23.125C22.6935 9.40625 22.3438 9.05652 22.3438 8.625C22.3438 8.19348 22.6935 7.84375 23.125 7.84375Z" fill="#B29150"/>
<path fill-rule="evenodd" clip-rule="evenodd" d="M26.25 0.03125C19.2166 0.03125 13.4439 4.88049 12.9974 10.9886C6.29913 11.3246 0 16.1546 0 22.6875C0 25.4176 1.08032 28.0629 3.04688 30.1588C3.43597 31.7628 2.96356 33.463 1.79138 34.6351C1.56799 34.8585 1.50116 35.1945 1.62201 35.4866C1.74286 35.7783 2.02759 35.9688 2.34375 35.9688C4.57184 35.9688 6.71906 35.095 8.31451 33.5554C9.86877 34.0852 11.8967 34.4062 13.75 34.4062C20.7825 34.4062 26.5546 29.5582 27.0023 23.4514C28.638 23.3787 30.3394 23.0766 31.6855 22.6179C33.2809 24.1575 35.4282 25.0312 37.6562 25.0312C37.9724 25.0312 38.2571 24.8408 38.378 24.5491C38.4988 24.257 38.432 23.921 38.2086 23.6976C37.0364 22.5255 36.564 20.8253 36.9531 19.2213C38.9197 17.1254 40 14.4801 40 11.75C40 4.96198 33.2156 0.03125 26.25 0.03125ZM13.75 32.8438C11.9061 32.8438 9.80499 32.4818 8.39752 31.9218C8.09601 31.8016 7.75146 31.8806 7.53204 32.1202C6.58875 33.1514 5.36224 33.8704 4.02588 34.2009C4.76227 32.79 4.95026 31.1268 4.50226 29.5509C4.46686 29.4267 4.40125 29.3132 4.31122 29.2207C2.53876 27.3951 1.5625 25.0749 1.5625 22.6875C1.5625 17.1821 7.14355 12.5312 13.75 12.5312C19.9884 12.5312 25.4688 16.8693 25.4688 22.6875C25.4688 28.2878 20.2118 32.8438 13.75 32.8438ZM35.6888 18.2832C35.5988 18.376 35.5331 18.4895 35.4977 18.6134C35.0497 20.1893 35.2377 21.8525 35.9741 23.2634C34.6378 22.9332 33.4113 22.2139 32.468 21.1827C32.2485 20.9434 31.904 20.8641 31.6025 20.9843C30.3827 21.4695 28.6426 21.8055 26.9998 21.8867C26.7715 18.9323 25.2979 16.1555 22.7783 14.0938H32.9688C33.4003 14.0938 33.75 13.744 33.75 13.3125C33.75 12.881 33.4003 12.5312 32.9688 12.5312H20.3781C18.6047 11.6285 16.6135 11.1021 14.5639 10.9916C15.0128 5.74445 20.0827 1.59375 26.25 1.59375C32.8564 1.59375 38.4375 6.24463 38.4375 11.75C38.4375 14.1374 37.4612 16.4576 35.6888 18.2832Z" fill="#B29150"/>
</svg>
